<svg xmlns="http://www.w3.org/2000/svg" width="24" height="24" viewBox="0 0 24 24">
  <g id="Group_4671" data-name="Group 4671" transform="translate(-271 -27)">
    <path id="Path_2757" data-name="Path 2757" d="M289,30V28a1,1,0,0,0-2,0v2h-8V28a1,1,0,0,0-2,0v2a6,6,0,0,0-6,6v9a6,6,0,0,0,6,6h12a6,6,0,0,0,6-6V36A6,6,0,0,0,289,30Zm4,15a4,4,0,0,1-4,4H277a4,4,0,0,1-4-4V36a4,4,0,0,1,4-4v2a1,1,0,0,0,2,0V32h8v2a1,1,0,0,0,2,0V32a4,4,0,0,1,4,4Z" fill="#fff"/>
    <path id="Path_2758" data-name="Path 2758" d="M289,39H277a1,1,0,0,0,0,2h12a1,1,0,0,0,0-2Z" fill="#fff"/>
  </g>
</svg>
